<svg xmlns:xlink="http://www.w3.org/1999/xlink" xmlns="http://www.w3.org/2000/svg" class="icon -instagram" height="22" width="22"><defs><symbol id="icon-instagram" viewBox="0 0 22 22"> <defs></defs> <g id="insta" transform="translate(22851 -11305)"> <path d="M0 0h22v22H0z" fill="none" id="Rectangle_296" transform="translate(-22851 11305)"> </path> <g id="Group_527" transform="translate(-.001 .156)"> <path d="M9.27 1.67c2.475 0 2.769.009 3.746.054A3.97 3.97 0 0115.8 2.737a3.97 3.97 0 011.013 2.787c.045.977.054 1.271.054 3.746s-.009 2.769-.054 3.746A3.97 3.97 0 0115.8 15.8a3.97 3.97 0 01-2.787 1.013c-.977.045-1.271.054-3.746.054s-2.769-.009-3.746-.054A3.97 3.97 0 012.737 15.8a3.97 3.97 0 01-1.013-2.787c-.045-.977-.054-1.271-.054-3.746s.009-2.769.054-3.746a3.97 3.97 0 011.013-2.784 3.97 3.97 0 012.787-1.013C6.5 1.679 6.8 1.67 9.27 1.67m0-1.67C6.753 0 6.437.011 5.448.056a5.54 5.54 0 00-3.892 1.5 5.54 5.54 0 00-1.5 3.892C.011 6.437 0 6.753 0 9.27s.011 2.83.056 3.823a5.54 5.54 0 001.5 3.892 5.54 5.54 0 003.892 1.5c.989.045 1.3.056 3.822.056s2.834-.011 3.822-.056a5.54 5.54 0 003.892-1.5 5.54 5.54 0 001.5-3.892c.045-.989.056-1.3.056-3.822s-.011-2.834-.056-3.822a5.54 5.54 0 00-1.5-3.892 5.54 5.54 0 00-3.892-1.5C12.1.011 11.788 0 9.27 0z" fiil="#111" id="Path_146" transform="translate(-22849 11306.844)"></path> <path d="M10.6 5.838a4.76 4.76 0 104.76 4.76 4.761 4.761 0 00-4.76-4.76zm0 7.85a3.09 3.09 0 113.09-3.09 3.09 3.09 0 01-3.09 3.09z" fiil="#111" id="Path_147" transform="translate(-22850.328 11305.516)"></path> </g> </g> </symbol></defs> <use xlink:href="#icon-instagram"></use> </svg>