<svg xmlns:xlink="http://www.w3.org/1999/xlink" xmlns="http://www.w3.org/2000/svg" height="16" width="16"><defs><symbol id="icon-language" viewBox="0 0 24 24" fill="none">
    <g id="icon_language_group">
        <g id="icon_language_group_2">
            <path id="Vector" d="M12 23C15.9 21.1 18 16.9 18 12C18 7.1 15.9 2.9 12 1" stroke="currentColor" stroke-width="1.4" stroke-linecap="round" stroke-linejoin="round"></path>
            <path id="Vector_2" d="M12 23C8.1 21.1 6 16.9 6 12C6 7.1 8.1 2.9 12 1" stroke="currentColor" stroke-width="1.4" stroke-linecap="round" stroke-linejoin="round"></path>
            <path id="Vector_3" d="M12 23V22V2V1" stroke="currentColor" stroke-width="1.4" stroke-linecap="round" stroke-linejoin="round"></path>
            <path id="Vector_4" d="M1 12H23" stroke="currentColor" stroke-width="1.4" stroke-linecap="round" stroke-linejoin="round"></path>
            <path id="Vector_5" d="M12 23C18.0751 23 23 18.0751 23 12C23 5.92487 18.0751 1 12 1C5.92487 1 1 5.92487 1 12C1 18.0751 5.92487 23 12 23Z" stroke="currentColor" stroke-width="1.4" stroke-linecap="round" stroke-linejoin="round"></path>
        </g>
    </g>
</symbol></defs> <use xlink:href="#icon-language"></use> </svg>