<svg xmlns:xlink="http://www.w3.org/1999/xlink" xmlns="http://www.w3.org/2000/svg" class="icon -youtube" height="22" width="22"><defs><symbol id="icon-youtube" viewBox="0 0 22 22"> <path d="M0 0h22v22H0z" fill="none"></path> <path d="M21.818 7.001a4.162 4.162 0 00-.916-2.2 2.7 2.7 0 00-2.2-.917c-3.117-.183-7.7-.183-7.7-.183s-4.583 0-7.7.183a3.506 3.506 0 00-2.2.917 5.172 5.172 0 00-.917 2.2S.002 8.742.002 10.576v1.65c0 1.741.183 3.575.183 3.575a4.162 4.162 0 00.917 2.2 3.413 3.413 0 002.383.917c1.742.183 7.517.183 7.517.183s4.583 0 7.7-.275a3.506 3.506 0 002.2-.917 5.172 5.172 0 00.917-2.2s.183-1.742.183-3.575v-1.65c0-1.742-.184-3.483-.184-3.483zM8.71 14.242V8.101l5.958 3.117z" fill="#111"></path> </symbol></defs> <use xlink:href="#icon-youtube"></use> </svg>